HIERARCHY
ROOT Hips
{
	OFFSET 0.000000 103.266502 0.000000
	CHANNELS 6 Xposition Yposition Zposition Xrotation Yrotation Zrotation 
	JOINT Spine
	{
		OFFSET -0.002400 12.777504 0.315300
		CHANNELS 3 Xrotation Yrotation Zrotation
		JOINT Spine1
		{
			OFFSET -0.002067 5.816869 0.032633
			CHANNELS 3 Xrotation Yrotation Zrotation
			JOINT Spine1_split
			{
				OFFSET -0.002067 5.816869 0.032633
				CHANNELS 3 Xrotation Yrotation Zrotation
				JOINT Spine2
				{
					OFFSET -0.002067 5.816869 0.032633
					CHANNELS 3 Xrotation Yrotation Zrotation
					JOINT Neck
					{
						OFFSET -0.003700 21.199493 -0.826900
						CHANNELS 3 Xrotation Yrotation Zrotation
						JOINT Head
						{
							OFFSET 0.000000 20.442200 4.834800
							CHANNELS 3 Xrotation Yrotation Zrotation
							JOINT HeadTop_End
							{
								OFFSET 0.000000 34.668396 4.968400
								CHANNELS 3 Xrotation Yrotation Zrotation
								End Site
								{
									OFFSET 0.000000 0.000000 0.000000
								}
							}
						}
					}
					JOINT LeftShoulder
					{
						OFFSET 3.288150 8.794197 -1.372250
						CHANNELS 3 Xrotation Yrotation Zrotation
						JOINT LeftShoulder_split
						{
							OFFSET 3.288150 8.794197 -1.372250
							CHANNELS 3 Xrotation Yrotation Zrotation
							JOINT LeftArm
							{
								OFFSET 11.953299 -2.279007 -0.146200
								CHANNELS 3 Xrotation Yrotation Zrotation
								JOINT LeftForeArm
								{
									OFFSET 18.448900 0.000000 0.000000
									CHANNELS 3 Xrotation Yrotation Zrotation
									JOINT LeftHand
									{
										OFFSET 29.527798 0.000000 0.000000
										CHANNELS 3 Xrotation Yrotation Zrotation
										JOINT LeftHandThumb1
										{
											OFFSET 10.739754 -2.369614 9.225399
											CHANNELS 3 Xrotation Yrotation Zrotation
											JOINT LeftHandThumb2
											{
												OFFSET 4.926170 -2.844131 2.844125
												CHANNELS 3 Xrotation Yrotation Zrotation
												JOINT LeftHandThumb3
												{
													OFFSET 4.614891 -2.664413 2.664409
													CHANNELS 3 Xrotation Yrotation Zrotation
													JOINT LeftHandThumb4
													{
														OFFSET 4.432465 -2.559082 2.559083
														CHANNELS 3 Xrotation Yrotation Zrotation
														End Site
														{
															OFFSET 0.000000 0.000000 0.000000
														}
													}
												}
											}
										}
										JOINT LeftHandIndex1
										{
											OFFSET 26.467674 0.187653 6.405298
											CHANNELS 3 Xrotation Yrotation Zrotation
											JOINT LeftHandIndex2
											{
												OFFSET 8.792900 0.000000 0.000000
												CHANNELS 3 Xrotation Yrotation Zrotation
												JOINT LeftHandIndex3
												{
													OFFSET 10.075203 0.000000 0.000000
													CHANNELS 3 Xrotation Yrotation Zrotation
													End Site
													{
														OFFSET 0.000000 0.000000 0.000000
													}
												}
											}
										}
										JOINT LeftHandMiddle1
										{
											OFFSET 25.764404 0.000000 0.000000
											CHANNELS 3 Xrotation Yrotation Zrotation
											JOINT LeftHandMiddle2
											{
												OFFSET 9.393974 0.000000 0.000000
												CHANNELS 3 Xrotation Yrotation Zrotation
												JOINT LeftHandMiddle3
												{
													OFFSET 10.771950 0.000000 0.000000
													CHANNELS 3 Xrotation Yrotation Zrotation
													End Site
													{
														OFFSET 0.000000 0.000000 0.000000
													}
												}
											}
										}
										JOINT LeftHandRing1
										{
											OFFSET 24.660927 0.144547 -6.225808
											CHANNELS 3 Xrotation Yrotation Zrotation
											JOINT LeftHandRing2
											{
												OFFSET 9.393799 0.000000 0.000000
												CHANNELS 3 Xrotation Yrotation Zrotation
												JOINT LeftHandRing3
												{
													OFFSET 9.928497 0.000000 0.000000
													CHANNELS 3 Xrotation Yrotation Zrotation
													End Site
													{
														OFFSET 0.000000 0.000000 0.000000
													}
												}
											}
										}
										JOINT LeftHandPinky1
										{
											OFFSET 23.655350 0.125290 -12.815412
											CHANNELS 3 Xrotation Yrotation Zrotation
											JOINT LeftHandPinky2
											{
												OFFSET 8.425102 0.000000 0.000000
												CHANNELS 3 Xrotation Yrotation Zrotation
												JOINT LeftHandPinky3
												{
													OFFSET 8.147003 0.000000 0.000000
													CHANNELS 3 Xrotation Yrotation Zrotation
													End Site
													{
														OFFSET 0.000000 0.000000 0.000000
													}
												}
											}
										}
									}
								}
							}
						}
					}
					JOINT RightShoulder
					{
						OFFSET -3.249400 8.794197 -1.372250
						CHANNELS 3 Xrotation Yrotation Zrotation
						JOINT RightShoulder_split
						{
							OFFSET -3.249400 8.794197 -1.372250
							CHANNELS 3 Xrotation Yrotation Zrotation
							JOINT RightArm
							{
								OFFSET -11.953299 -2.279007 -0.146200
								CHANNELS 3 Xrotation Yrotation Zrotation
								JOINT RightForeArm
								{
									OFFSET -18.448900 0.000000 0.000000
									CHANNELS 3 Xrotation Yrotation Zrotation
									JOINT RightHand
									{
										OFFSET -29.527802 0.000000 0.000000
										CHANNELS 3 Xrotation Yrotation Zrotation
										JOINT RightHandThumb1
										{
											OFFSET -10.739754 -2.369614 9.225399
											CHANNELS 3 Xrotation Yrotation Zrotation
											JOINT RightHandThumb2
											{
												OFFSET -4.926170 -2.844131 2.844125
												CHANNELS 3 Xrotation Yrotation Zrotation
												JOINT RightHandThumb3
												{
													OFFSET -4.614891 -2.664413 2.664409
													CHANNELS 3 Xrotation Yrotation Zrotation
													JOINT RightHandThumb4
													{
														OFFSET -4.432465 -2.559082 2.559083
														CHANNELS 3 Xrotation Yrotation Zrotation
														End Site
														{
															OFFSET 0.000000 0.000000 0.000000
														}
													}
												}
											}
										}
										JOINT RightHandIndex1
										{
											OFFSET -26.467674 0.187653 6.405298
											CHANNELS 3 Xrotation Yrotation Zrotation
											JOINT RightHandIndex2
											{
												OFFSET -8.792900 0.000000 0.000000
												CHANNELS 3 Xrotation Yrotation Zrotation
												JOINT RightHandIndex3
												{
													OFFSET -10.075203 0.000000 0.000000
													CHANNELS 3 Xrotation Yrotation Zrotation
													End Site
													{
														OFFSET 0.000000 0.000000 0.000000
													}
												}
											}
										}
										JOINT RightHandMiddle1
										{
											OFFSET -25.764404 0.000000 0.000000
											CHANNELS 3 Xrotation Yrotation Zrotation
											JOINT RightHandMiddle2
											{
												OFFSET -9.393974 0.000000 0.000000
												CHANNELS 3 Xrotation Yrotation Zrotation
												JOINT RightHandMiddle3
												{
													OFFSET -10.771950 0.000000 0.000000
													CHANNELS 3 Xrotation Yrotation Zrotation
													End Site
													{
														OFFSET 0.000000 0.000000 0.000000
													}
												}
											}
										}
										JOINT RightHandRing1
										{
											OFFSET -24.660927 0.144547 -6.225808
											CHANNELS 3 Xrotation Yrotation Zrotation
											JOINT RightHandRing2
											{
												OFFSET -9.393799 0.000000 0.000000
												CHANNELS 3 Xrotation Yrotation Zrotation
												JOINT RightHandRing3
												{
													OFFSET -9.928497 0.000000 0.000000
													CHANNELS 3 Xrotation Yrotation Zrotation
													End Site
													{
														OFFSET 0.000000 0.000000 0.000000
													}
												}
											}
										}
										JOINT RightHandPinky1
										{
											OFFSET -23.655350 0.125290 -12.815412
											CHANNELS 3 Xrotation Yrotation Zrotation
											JOINT RightHandPinky2
											{
												OFFSET -8.425102 0.000000 0.000000
												CHANNELS 3 Xrotation Yrotation Zrotation
												JOINT RightHandPinky3
												{
													OFFSET -8.147003 0.000000 0.000000
													CHANNELS 3 Xrotation Yrotation Zrotation
													End Site
													{
														OFFSET 0.000000 0.000000 0.000000
													}
												}
											}
										}
									}
								}
							}
						}
					}
				}
			}
		}
	}
	JOINT LeftUpLeg
	{
		OFFSET 11.394100 -6.187798 -0.413800
		CHANNELS 3 Xrotation Yrotation Zrotation
		JOINT LeftLeg
		{
			OFFSET 0.430247 -32.302673 3.732800
			CHANNELS 3 Xrotation Yrotation Zrotation
			JOINT LeftFoot
			{
				OFFSET -0.430247 -48.264931 -6.423300
				CHANNELS 3 Xrotation Yrotation Zrotation
				JOINT LeftToeBase
				{
					OFFSET 4.230900 -16.068199 23.438400
					CHANNELS 3 Xrotation Yrotation Zrotation
					JOINT LeftToe_End
					{
						OFFSET 4.510700 0.695400 19.974600
						CHANNELS 3 Xrotation Yrotation Zrotation
						End Site
						{
							OFFSET 0.000000 0.000000 0.000000
						}
					}
				}
			}
		}
	}
	JOINT RightUpLeg
	{
		OFFSET -11.333700 -6.187798 -0.413800
		CHANNELS 3 Xrotation Yrotation Zrotation
		JOINT RightLeg
		{
			OFFSET -0.430392 -32.302628 3.733000
			CHANNELS 3 Xrotation Yrotation Zrotation
			JOINT RightFoot
			{
				OFFSET 0.430392 -48.264973 -6.423500
				CHANNELS 3 Xrotation Yrotation Zrotation
				JOINT RightToeBase
				{
					OFFSET -4.230900 -16.068199 23.438400
					CHANNELS 3 Xrotation Yrotation Zrotation
					JOINT RightToe_End
					{
						OFFSET -4.510700 0.695400 19.974600
						CHANNELS 3 Xrotation Yrotation Zrotation
						End Site
						{
							OFFSET 0.000000 0.000000 0.000000
						}
					}
				}
			}
		}
	}
}
MOTION
Frames: 5
Frame Time: 0.016667
1.928035 87.589600 28.011856 5.493274 -411.519526 7.352616 11.715559 -6.228093 5.160159 7.182699 -7.370587 1.871816 0.000000 0.000000 0.000000 -3.934138 -6.959423 2.025282 7.764872 41.421522 -11.305571 0.258112 26.018796 -6.977971 0.000001 -0.000000 0.000002 1.383207 -5.637197 -0.733879 0.000000 0.000000 0.000000 -2.266007 -2.878851 -36.679455 -0.000813 -20.848217 -3.050609 -46.535523 -14.688301 25.139514 20.995602 -10.306021 6.187768 3.717720 17.385543 -9.270253 11.901755 19.029115 -1.676425 -0.000001 -0.000000 0.000001 12.155548 -5.009007 -19.357547 -1.752635 1.408425 -24.867491 0.000000 -0.000001 0.000001 2.495183 2.549561 -39.191987 -1.398710 0.248724 -47.542946 -0.000001 0.000006 0.000001 0.949984 6.178072 -48.371687 -2.316276 1.003921 -53.554605 0.000001 -0.000002 -0.000000 -1.286400 4.834430 -53.465280 -2.521695 1.318788 -48.312209 0.000001 -0.000001 0.000001 9.987219 -5.269196 3.687166 0.000000 0.000000 0.000000 4.872917 -1.636435 76.375503 -10.545831 13.289839 4.346982 -27.527573 -8.499063 -15.910816 55.149529 18.649553 -29.698274 -0.442551 -14.180563 7.313146 21.666989 -29.244479 9.142375 -0.000000 0.000001 0.000003 5.673392 7.585014 36.844158 1.050474 3.824517 68.900237 0.000002 0.000001 -0.000001 -0.125716 1.886075 45.000790 -1.168980 3.204680 68.417650 -0.000003 0.000001 0.000001 -5.311997 1.216626 58.508787 -0.745224 1.667563 48.011288 -0.000002 0.000003 -0.000000 -7.756831 -9.376445 47.264021 -0.526021 1.541570 45.600532 0.000000 0.000004 -0.000001 -7.672028 15.136478 -5.706578 46.647600 -9.130489 -7.890719 -29.817474 -9.072148 17.752758 -9.175146 -2.395673 0.017001 -0.000000 -0.000002 0.000000 -61.402813 -1.167205 -0.802159 28.782004 10.677001 4.701915 -7.485347 4.197216 10.037491 2.549286 -5.172624 8.236453 0.000002 0.000001 -0.000001 
3.110940 88.011490 26.878445 5.600096 -412.767429 6.964440 11.574376 -6.018013 5.151931 6.897505 -6.951602 1.878610 0.000000 0.000000 0.000000 -4.209818 -6.549580 2.113407 6.754100 41.480446 -10.680610 1.712230 25.842644 -7.475043 0.000001 -0.000000 -0.000000 1.270524 -5.316210 -0.766515 0.000000 0.000000 0.000000 -4.829685 -2.597539 -36.315091 -0.000760 -23.380841 -2.655207 -43.580005 -16.603169 22.958399 20.993666 -10.305563 6.186531 3.715738 17.385345 -9.269072 11.901594 19.029264 -1.677061 -0.000000 0.000002 -0.000002 12.155539 -5.009007 -19.357501 -1.752643 1.408478 -24.867523 -0.000001 0.000000 0.000000 2.495522 2.548922 -39.191933 -1.398861 0.248777 -47.542939 -0.000000 -0.000004 -0.000000 0.950611 6.178126 -48.371734 -2.316289 1.003874 -53.554595 -0.000001 -0.000000 0.000001 -1.286436 4.834454 -53.465246 -2.521165 1.318776 -48.312281 -0.000001 -0.000002 -0.000000 10.009424 -5.246974 3.894575 0.000000 0.000000 0.000000 5.281029 -0.456758 74.450353 -9.017188 16.459800 6.074801 -27.199900 -7.979304 -16.432202 55.149526 18.649550 -29.698267 -0.442545 -14.180561 7.313148 21.666987 -29.244479 9.142375 -0.000002 0.000003 0.000001 5.673389 7.585016 36.844158 1.050473 3.824518 68.900230 -0.000000 -0.000001 0.000000 -0.125717 1.886070 45.000790 -1.168982 3.204683 68.417650 -0.000001 -0.000001 0.000001 -5.311995 1.216626 58.508787 -0.745221 1.667561 48.011288 0.000002 -0.000001 0.000000 -7.756832 -9.376451 47.264018 -0.526024 1.541569 45.600532 0.000004 -0.000001 0.000000 -6.710496 14.939645 -5.678774 43.582505 -8.655866 -7.879752 -31.760858 -8.188340 15.739975 -5.175301 -5.767743 1.084218 -0.000000 -0.000002 0.000000 -60.776034 -2.049050 -1.947408 28.029742 11.673653 6.147531 -4.720869 4.842932 10.872600 1.914858 -4.655923 7.674918 0.000001 -0.000001 -0.000001 
4.178124 88.451050 25.849983 5.855601 -413.701662 7.284037 11.475607 -5.863338 5.058710 6.702445 -6.646080 1.735213 0.000000 0.000000 0.000000 -4.396964 -6.222357 2.032138 5.775680 41.621144 -10.698915 2.687457 25.531739 -7.780069 0.000000 0.000000 -0.000000 1.193839 -5.438139 -0.666392 0.000000 0.000000 0.000000 -7.183526 -1.982258 -36.296168 -0.000746 -25.615141 -2.431717 -40.197176 -19.135402 21.319329 20.991792 -10.305255 6.185322 3.713720 17.384913 -9.267941 11.901408 19.029375 -1.677498 0.000000 0.000001 0.000001 12.155560 -5.008996 -19.357560 -1.752642 1.408476 -24.867491 -0.000000 -0.000001 0.000001 2.495741 2.548429 -39.191878 -1.399384 0.248721 -47.542918 0.000000 -0.000001 -0.000000 0.951323 6.178126 -48.371827 -2.316279 1.003904 -53.554625 0.000000 0.000000 -0.000001 -1.286387 4.834473 -53.465280 -2.520845 1.318751 -48.312233 0.000001 -0.000001 0.000004 10.002475 -5.247358 3.791883 0.000000 0.000000 0.000000 5.106698 1.244151 72.693942 -7.342010 18.797422 7.476830 -27.297749 -7.313744 -16.910830 55.149526 18.649553 -29.698277 -0.442546 -14.180560 7.313147 21.666989 -29.244479 9.142375 0.000000 0.000003 0.000000 5.673390 7.585016 36.844158 1.050471 3.824515 68.900237 0.000001 -0.000000 0.000000 -0.125719 1.886075 45.000790 -1.168983 3.204680 68.417650 -0.000003 -0.000001 -0.000000 -5.311996 1.216626 58.508787 -0.745221 1.667561 48.011288 -0.000001 0.000001 0.000000 -7.756832 -9.376450 47.264018 -0.526025 1.541571 45.600532 0.000001 -0.000003 -0.000001 -6.093936 14.666627 -6.202540 41.218535 -7.922156 -7.862267 -33.359180 -7.252289 13.857985 -1.034945 -8.969436 2.360115 -0.000000 0.000002 -0.000000 -60.408392 -1.706250 -1.936804 28.338626 11.496632 5.331977 -1.480995 5.241494 11.221578 3.273237 -3.936338 7.364751 -0.000002 0.000002 -0.000000 
5.110295 88.824448 24.879162 6.127805 -414.292173 7.806284 11.434344 -5.745244 4.927360 6.628109 -6.390931 1.563489 0.000000 0.000000 0.000000 -4.464397 -5.939060 1.913257 4.365868 41.687462 -10.666469 3.702047 25.152699 -8.050837 -0.000000 -0.000000 0.000001 1.126230 -5.641833 -0.722995 0.000000 0.000000 0.000000 -9.346835 -1.665564 -36.045312 -0.000767 -28.424314 -2.537049 -36.837304 -19.810976 22.805356 20.990322 -10.305122 6.184450 3.711904 17.384491 -9.266745 11.901364 19.029421 -1.677661 0.000001 0.000001 0.000000 12.155581 -5.008971 -19.357504 -1.752652 1.408414 -24.867523 0.000001 0.000001 -0.000001 2.495616 2.548051 -39.191861 -1.400257 0.248777 -47.542911 -0.000001 0.000002 0.000001 0.951978 6.178108 -48.371946 -2.316331 1.003926 -53.554615 0.000001 0.000001 0.000001 -1.286401 4.834428 -53.465280 -2.520804 1.318779 -48.312291 -0.000001 -0.000002 -0.000000 10.045352 -5.469084 3.772896 0.000000 0.000000 0.000000 4.495819 3.336464 70.727640 -5.588851 20.793982 8.779313 -27.367702 -6.389265 -16.786228 55.149529 18.649555 -29.698270 -0.442550 -14.180565 7.313150 21.666989 -29.244479 9.142373 -0.000002 0.000001 0.000000 5.673389 7.585015 36.844151 1.050472 3.824516 68.900237 0.000000 -0.000001 -0.000000 -0.125720 1.886072 45.000790 -1.168984 3.204681 68.417650 -0.000001 0.000001 0.000000 -5.311999 1.216626 58.508787 -0.745222 1.667561 48.011285 0.000000 0.000001 0.000000 -7.756832 -9.376452 47.264018 -0.526026 1.541571 45.600535 -0.000000 -0.000003 0.000001 -5.718432 13.902228 -7.070558 39.231924 -7.236415 -7.467271 -34.876862 -6.328866 11.777534 3.289609 -11.266850 4.065010 -0.000000 -0.000002 0.000000 -60.327537 -0.631800 -1.502467 29.375534 11.066150 3.348429 2.104370 5.444286 12.903830 3.856319 -3.668710 7.269364 -0.000000 0.000000 0.000001 
5.949871 89.387199 23.870644 5.480170 -414.595706 7.098797 11.515153 -5.638056 4.891192 6.794954 -6.175017 1.573891 0.000000 0.000000 0.000000 -4.293378 -5.729226 1.965304 3.628499 41.912547 -10.957753 4.357233 24.829242 -7.798365 0.000000 0.000000 -0.000000 1.050626 -5.732705 -0.645915 0.000000 0.000000 0.000000 -10.981762 -1.677364 -36.071342 -0.000884 -31.013789 -2.911608 -33.739970 -20.679979 24.857118 20.989660 -10.305159 6.184091 3.710563 17.384155 -9.265649 11.901458 19.029344 -1.677391 0.000000 -0.000001 -0.000001 12.155536 -5.009018 -19.357535 -1.752630 1.408451 -24.867542 -0.000000 -0.000001 0.000000 2.495145 2.547915 -39.191865 -1.401617 0.248743 -47.542819 0.000000 0.000001 0.000001 0.952467 6.178088 -48.372008 -2.316348 1.003908 -53.554660 0.000001 -0.000003 0.000002 -1.286409 4.834451 -53.465263 -2.521118 1.318805 -48.312243 -0.000002 -0.000001 0.000001 10.061752 -5.462826 3.895495 0.000000 0.000000 0.000000 4.113604 5.243619 68.416946 -3.708435 23.102789 10.041090 -28.527465 -5.824119 -17.377285 55.149526 18.649555 -29.698270 -0.442546 -14.180561 7.313151 21.666989 -29.244479 9.142371 0.000000 -0.000002 -0.000000 5.673389 7.585014 36.844158 1.050472 3.824516 68.900230 -0.000000 -0.000000 -0.000000 -0.125720 1.886073 45.000787 -1.168982 3.204681 68.417650 0.000000 0.000000 0.000000 -5.311997 1.216626 58.508787 -0.745225 1.667561 48.011298 -0.000001 0.000001 0.000000 -7.756832 -9.376450 47.264018 -0.526026 1.541572 45.600532 0.000000 -0.000001 0.000001 -5.625619 13.349472 -7.511629 38.457479 -6.426339 -6.648886 -36.006114 -6.414710 11.258143 7.670314 -12.549711 4.421189 -0.000000 -0.000002 0.000000 -58.651381 0.462926 -1.343537 29.336636 10.068756 1.849158 5.422203 5.509037 13.718912 6.053380 -2.634294 6.805218 0.000001 0.000001 0.000001 
